<svg id="Layer_2" data-name="Layer 2" xmlns="http://www.w3.org/2000/svg" viewBox="0 0 192.06 192.06"><defs><style>.cls-1{fill:#ed4e45;}.cls-2{fill:#de6d6d;}.cls-3{fill:#fff;}</style></defs><circle id="bg_1" data-name="bg 1" class="cls-1" cx="96.03" cy="96.03" r="96.03"/><circle id="bg_2" data-name="bg 2" class="cls-2" cx="96.03" cy="96.03" r="96.03"/><g id="dog"><path class="cls-3" d="M92.82,43.33c-2.44,3.55-5,7-7.28,10.71A44.4,44.4,0,0,0,81,65.19,39.86,39.86,0,0,0,79.56,71a18.08,18.08,0,0,0,.24,5.49c.54,3.09,1.68,6.34,4,8.51,2,1.79,4.72,2.48,7.23,3.14a31.28,31.28,0,0,0,15.57.13,12.41,12.41,0,0,0,7-6.64,39,39,0,0,0,3.12-12.69,56,56,0,0,0-.36-14.22c-.14-1-1.59-.55-1.45.39A51.8,51.8,0,0,1,113.43,78c-1,3.31-2.8,6.64-6,8.31-2.1,1.11-4.75,1.18-7.07,1.32a25.21,25.21,0,0,1-7.3-.55,24.9,24.9,0,0,1-7-2.27c-2.68-1.58-4-4.73-4.62-7.62a19.62,19.62,0,0,1-.52-4.76,24.5,24.5,0,0,1,1.24-5.91A46,46,0,0,1,86.83,54.8c2.26-3.67,4.85-7.16,7.29-10.71.55-.8-.75-1.55-1.3-.76Z" transform="translate(-3.97 -3.97)"/><path class="cls-3" d="M66.81,47.8a6.74,6.74,0,0,0,5.27,3.43,8.08,8.08,0,0,0,3.75-.45,15.33,15.33,0,0,0,2.65-1.63c.81-.52.06-1.82-.75-1.29a19.08,19.08,0,0,1-2.22,1.43,6.51,6.51,0,0,1-3.09.47,5.24,5.24,0,0,1-4.32-2.71.75.75,0,0,0-1.29.75Z" transform="translate(-3.97 -3.97)"/><path class="cls-3" d="M171,162.53A155.87,155.87,0,0,0,155,132.3c-3.23-4.69-6.71-9.2-10.37-13.56-3.92-4.64-8.28-9-11.8-13.92a46.58,46.58,0,0,1-7.19-15.62c-1.29-5.27-1.2-10.62-1-16,.18-4.81.52-9.8-.49-14.55A35.51,35.51,0,0,0,118,45a34.44,34.44,0,0,0-10.87-9.51c-3.44-1.89-7.33-2.5-11.19-2.85a78.83,78.83,0,0,0-14.08,0c-3.4.3-7.09.52-9.94,2.55-4,2.85-7.47,6.43-11.74,8.92A33.15,33.15,0,0,1,42.7,48.56c-2.74-.08-5.45-1-8.19-.8a4.63,4.63,0,0,0-4.28,3.33c-2.05,5.16-1.63,11.63.17,16.79A25.37,25.37,0,0,0,38.85,80C43.32,83.3,49,84.43,54.22,86.05c3,.92,6,1.89,8.87,3,2.41.92,5.39,2.31,6.88,4.52s1.23,5.15,1,7.66c-.2,2.68-.38,5.36-.56,8s-.35,5.24-.38,7.86a.75.75,0,0,0,1.5,0c.06-5.3.54-10.61.94-15.89a16,16,0,0,0-.54-7,10.12,10.12,0,0,0-4.65-4.78,39.94,39.94,0,0,0-7.6-3.19c-2.82-1-5.68-1.83-8.54-2.69-5.14-1.56-10.13-3-13.94-7a25.59,25.59,0,0,1-6.72-15.2,24.73,24.73,0,0,1,.78-8.73c.31-1.09.8-2.53,1.88-3.08a6.44,6.44,0,0,1,3.35-.2,53.69,53.69,0,0,0,8.58.71,34.29,34.29,0,0,0,8.58-1.53A40,40,0,0,0,67.06,41c1.78-1.44,3.5-3,5.35-4.32a9.62,9.62,0,0,1,4.12-1.78,66.48,66.48,0,0,1,13.06-1,51.1,51.1,0,0,1,12.81,1.35c4.26,1.13,8.11,4,11.2,7a33.26,33.26,0,0,1,7.88,12.58A39.6,39.6,0,0,1,123.24,69c-.11,5.06-.55,10.14,0,15.2a45.84,45.84,0,0,0,4.52,15c2.51,5.21,6.09,9.62,9.92,13.92s7.73,8.79,11.28,13.45a153.72,153.72,0,0,1,17.16,28.3c1.23,2.66,2.39,5.36,3.49,8.08.35.89,1.8.5,1.44-.4Z" transform="translate(-3.97 -3.97)"/></g><g id="cat"><path d="M126.55,186.73a167,167,0,0,0-5.46-23,119.24,119.24,0,0,0-8.75-19.71,57.49,57.49,0,0,0-5.17-7.85,54.4,54.4,0,0,0-6.7-6.79A21.35,21.35,0,0,1,97.18,126a6.73,6.73,0,0,1-1.16-3.5c-.26-2.56-.07-5.14-.35-7.69-.62-5.84-2.57-12.51-8.13-15.45a.77.77,0,0,0-.91.12,58.13,58.13,0,0,0-6.41,9.06c-1,1.53-1.89,3.07-2.84,4.6A21.87,21.87,0,0,1,75.46,116c-.08.1-.31.29,0,.14a4.69,4.69,0,0,1-1.3.33c-1.13.25-2.27.4-3.42.54a33.61,33.61,0,0,0-6.38,1.23c-4.31,1.43-8.54,4.52-10.45,8.73-.76,1.66-1.16,3.44-1.89,5.11a15.14,15.14,0,0,1-4.4,5.6c-1.91,1.55-4.2,2.3-6.21,3.65-1.32.88-1.47,2.48-1.22,4a13,13,0,0,0,1.14,2.89c.56,1.25,1.14,2.49,1.77,3.7,1.15,2.26,2.39,4.56,3.76,6.69,1.26,2,2.89,2.54,5.14,2.59,2.62.06,5.28.05,7.89.26,5.19.41,10.35,3.35,11.88,8.57a28.81,28.81,0,0,1,.87,8.28,31.85,31.85,0,0,1-1.32,9.1c-.28.92,1.17,1.32,1.45.4a35.8,35.8,0,0,0,1-15.06c-.53-4.06-2.11-7.55-5.56-9.93a16.29,16.29,0,0,0-6.31-2.6,56,56,0,0,0-7.77-.41c-1.15-.05-2.37,0-3.51-.16a4,4,0,0,1-2.86-2.4c-1.3-2.26-2.63-4.51-3.79-6.85-1-2-2.49-4.28-2.35-6.55.06-1.07.63-1.33,1.56-1.79a34.62,34.62,0,0,0,3.4-1.81,18,18,0,0,0,7.59-9.75,17,17,0,0,1,2.41-5.14,17.34,17.34,0,0,1,6.51-5A23.71,23.71,0,0,1,70,118.58c1.84-.24,4.07-.26,5.79-1a5,5,0,0,0,1.82-2c1-1.52,1.94-3.09,2.89-4.64,2.18-3.54,4.33-7.29,7.17-10.35l-.91.12c5.08,2.68,6.88,8.91,7.41,14.25.25,2.57.07,5.17.34,7.74a9.58,9.58,0,0,0,3,6.07c2.15,2.23,4.64,4.07,6.72,6.37A49,49,0,0,1,110,143a112.71,112.71,0,0,1,8.81,18.78c3,8.21,4.75,16.81,6.32,25.38.17.95,1.62.55,1.44-.39Z" transform="translate(-3.97 -3.97)"/><path d="M59.12,133.85a6.4,6.4,0,0,0,2.3,1.58,7.59,7.59,0,0,0,3.67.28,6.92,6.92,0,0,0,3.07-1.06,8.29,8.29,0,0,0,1.53-1.37c.66-.71-.4-1.77-1.06-1.06a7.84,7.84,0,0,1-1.15,1.09,5.64,5.64,0,0,1-2.42.9,6.54,6.54,0,0,1-3.14-.18,4.87,4.87,0,0,1-1.74-1.24c-.66-.7-1.72.36-1.06,1.06Z" transform="translate(-3.97 -3.97)"/></g></svg>