<svg id="Layer_2" data-name="Layer 2" xmlns="http://www.w3.org/2000/svg" viewBox="0 0 192.06 192.06"><defs><style>.cls-1{fill:#ed4e45;}.cls-2{fill:#c4554d;}.cls-3{fill:#fff;}</style></defs><circle id="bg_1" data-name="bg 1" class="cls-1" cx="96.03" cy="96.03" r="96.03"/><circle id="bg_2" data-name="bg 2" class="cls-2" cx="96.03" cy="96.03" r="96.03"/><g id="dog"><path class="cls-3" d="M92.82,43.33c-2.44,3.55-5,7-7.28,10.71A44.4,44.4,0,0,0,81,65.19,39.86,39.86,0,0,0,79.56,71a18.08,18.08,0,0,0,.24,5.49c.54,3.09,1.68,6.34,4,8.51,2,1.79,4.72,2.48,7.23,3.14a31.28,31.28,0,0,0,15.57.13,12.41,12.41,0,0,0,7-6.64,39,39,0,0,0,3.12-12.69,56,56,0,0,0-.36-14.22c-.14-1-1.59-.55-1.45.39A51.8,51.8,0,0,1,113.43,78c-1,3.31-2.8,6.64-6,8.31-2.1,1.11-4.75,1.18-7.07,1.32a25.21,25.21,0,0,1-7.3-.55,24.9,24.9,0,0,1-7-2.27c-2.68-1.58-4-4.73-4.62-7.62a19.62,19.62,0,0,1-.52-4.76,24.5,24.5,0,0,1,1.24-5.91A46,46,0,0,1,86.83,54.8c2.26-3.67,4.85-7.16,7.29-10.71.55-.8-.75-1.55-1.3-.76Z" transform="translate(-3.97 -3.97)"/><path class="cls-3" d="M66.81,47.8a6.74,6.74,0,0,0,5.27,3.43,8.08,8.08,0,0,0,3.75-.45,15.33,15.33,0,0,0,2.65-1.63c.81-.52.06-1.82-.75-1.29a19.08,19.08,0,0,1-2.22,1.43,6.51,6.51,0,0,1-3.09.47,5.24,5.24,0,0,1-4.32-2.71.75.75,0,0,0-1.29.75Z" transform="translate(-3.97 -3.97)"/><path class="cls-3" d="M171.4,162.43a156.22,156.22,0,0,0-16.11-30.32c-3.24-4.71-6.74-9.25-10.43-13.63-3.89-4.62-8.23-8.92-11.74-13.85A46.24,46.24,0,0,1,126,89.1c-1.28-5.23-1.19-10.55-1-15.9.18-4.85.52-9.86-.5-14.65a35.61,35.61,0,0,0-6.2-13.78,34.61,34.61,0,0,0-11-9.64c-3.5-1.93-7.45-2.55-11.38-2.91a78.83,78.83,0,0,0-14.08,0c-3.46.31-7.22.53-10.13,2.6-4,2.85-7.47,6.43-11.74,8.93A32.82,32.82,0,0,1,42.7,48.18c-2.74-.08-5.45-.94-8.19-.79-2.37.13-3.78,1.43-4.64,3.6-2.07,5.23-1.66,11.76.17,17a25.77,25.77,0,0,0,8.62,12.3c4.5,3.36,10.19,4.51,15.46,6.13,3,.92,6,1.89,8.87,3,2.33.89,5.2,2.24,6.65,4.35s1.18,5,1,7.47c-.2,2.68-.37,5.36-.55,8s-.35,5.24-.38,7.86a1.13,1.13,0,0,0,2.25,0c.06-5.3.53-10.61.93-15.89a16.46,16.46,0,0,0-.55-7.12,10.44,10.44,0,0,0-4.82-5,40,40,0,0,0-7.69-3.23c-2.82-1-5.68-1.83-8.54-2.69-5.07-1.54-10-3-13.78-6.93a25.19,25.19,0,0,1-6.61-14.93,24.4,24.4,0,0,1,.77-8.63c.28-1,.71-2.36,1.71-2.85a6.15,6.15,0,0,1,3.16-.16,50.43,50.43,0,0,0,8.58.71,34.18,34.18,0,0,0,8.68-1.54,40.57,40.57,0,0,0,13.54-7.65c1.75-1.42,3.45-2.93,5.27-4.25a9.22,9.22,0,0,1,4-1.75,65.4,65.4,0,0,1,13-1,50.76,50.76,0,0,1,12.71,1.33c4.2,1.12,8,3.91,11,6.95a32.83,32.83,0,0,1,7.78,12.41c1.61,4.64,1.85,9.26,1.75,14.13-.12,5.06-.56,10.14,0,15.2a46.17,46.17,0,0,0,4.56,15.16c2.53,5.24,6.14,9.67,10,14s7.7,8.73,11.23,13.37A153.67,153.67,0,0,1,165.78,155c1.23,2.63,2.37,5.3,3.45,8,.54,1.33,2.71.75,2.17-.6Z" transform="translate(-3.97 -3.97)"/></g><g id="cat"><path d="M126.92,186.63a167,167,0,0,0-5.47-23,119.45,119.45,0,0,0-8.78-19.8,58,58,0,0,0-5.23-7.92,55.18,55.18,0,0,0-6.71-6.79,22.31,22.31,0,0,1-3.23-3.36,6.42,6.42,0,0,1-1.11-3.31c-.25-2.56-.07-5.14-.34-7.69-.64-6-2.64-12.77-8.32-15.77a1.16,1.16,0,0,0-1.37.17,59.18,59.18,0,0,0-6.47,9.14c-1,1.53-1.88,3.07-2.84,4.6-.57.91-1.4,1.89-1.86,2.78-.14.27-.28.18.12,0a9.9,9.9,0,0,1-1.3.33c-1.1.24-2.21.39-3.32.53a33.11,33.11,0,0,0-6.48,1.24c-4.39,1.45-8.72,4.61-10.67,8.9-.76,1.66-1.17,3.44-1.9,5.11a14.84,14.84,0,0,1-4.34,5.53c-1.89,1.52-4.14,2.26-6.13,3.58-1.48,1-1.65,2.69-1.4,4.36a12.24,12.24,0,0,0,1.19,3c.56,1.25,1.14,2.49,1.76,3.7,1.16,2.26,2.39,4.56,3.76,6.69s3.08,2.72,5.47,2.78c2.62.06,5.28.05,7.89.25,5,.4,10,3.25,11.52,8.3a28.51,28.51,0,0,1,.86,8.18,31.51,31.51,0,0,1-1.31,9,1.13,1.13,0,0,0,2.17.6,36.34,36.34,0,0,0,1-15.21c-.55-4.18-2.19-7.76-5.74-10.2a16.45,16.45,0,0,0-6.4-2.64,57.41,57.41,0,0,0-7.87-.43,33.25,33.25,0,0,1-3.46-.15A3.7,3.7,0,0,1,48.07,157c-1.29-2.26-2.63-4.51-3.79-6.85-1-1.92-2.43-4.16-2.3-6.36.06-.93.56-1.06,1.38-1.46a36.82,36.82,0,0,0,3.39-1.82,18.3,18.3,0,0,0,7.77-10,16.19,16.19,0,0,1,2.35-5,17,17,0,0,1,6.4-4.93A23.78,23.78,0,0,1,70,119a23.84,23.84,0,0,0,5.89-1,5.28,5.28,0,0,0,2-2.22c1-1.52,1.94-3.09,2.9-4.64,2.16-3.51,4.28-7.24,7.1-10.27l-1.36.17c5,2.62,6.7,8.73,7.22,13.93.26,2.57.08,5.17.35,7.74A9.94,9.94,0,0,0,97.28,129c2.14,2.23,4.63,4.08,6.72,6.38a48.8,48.8,0,0,1,5.66,7.8,112.44,112.44,0,0,1,8.77,18.69c3,8.21,4.75,16.81,6.32,25.38.26,1.43,2.42.82,2.17-.59Z" transform="translate(-3.97 -3.97)"/><path d="M59.12,133.85a6.4,6.4,0,0,0,2.3,1.58,7.59,7.59,0,0,0,3.67.28,6.92,6.92,0,0,0,3.07-1.06,8.29,8.29,0,0,0,1.53-1.37c.66-.71-.4-1.77-1.06-1.06a7.84,7.84,0,0,1-1.15,1.09,5.64,5.64,0,0,1-2.42.9,6.54,6.54,0,0,1-3.14-.18,4.87,4.87,0,0,1-1.74-1.24c-.66-.7-1.72.36-1.06,1.06Z" transform="translate(-3.97 -3.97)"/></g></svg>