<svg id="Layer_1" data-name="Layer 1" xmlns="http://www.w3.org/2000/svg" xmlns:xlink="http://www.w3.org/1999/xlink" viewBox="0 0 138.68 101.26"><defs><style>.cls-1{fill:none;}.cls-2{clip-path:url(#clip-path);}.cls-3,.cls-5{stroke:#b85858;stroke-linejoin:bevel;stroke-width:0.75px;}.cls-3{fill:url(#radial-gradient);}.cls-4{clip-path:url(#clip-path-2);}.cls-5{fill:url(#radial-gradient-2);}.cls-6{fill:url(#radial-gradient-3);}.cls-7{fill:#b85858;}.cls-8{fill:url(#radial-gradient-4);}.cls-9{fill:url(#radial-gradient-5);}.cls-10{fill:url(#radial-gradient-6);}.cls-11{font-size:45.57px;fill:#2a0036;stroke:#fff;stroke-miterlimit:10;stroke-width:0.5px;font-family:Lora-Bold, Lora;font-weight:700;letter-spacing:-0.01em;}.cls-12{letter-spacing:-0.02em;}.cls-13{letter-spacing:-0.02em;}.cls-14{letter-spacing:-0.02em;}.cls-15{letter-spacing:0em;}.cls-16{letter-spacing:0em;}</style><clipPath id="clip-path" transform="translate(-28.72 -40.07)"><polygon class="cls-1" points="100.16 93.76 68.99 138.93 51.78 138.93 51.78 73.88 100.16 73.88 100.16 93.76"/></clipPath><radialGradient id="radial-gradient" cx="87.38" cy="115.64" fy="107.7731897785563" r="42.06" gradientUnits="userSpaceOnUse"><stop offset="0.19" stop-color="#d47979"/><stop offset="1" stop-color="#b06868"/></radialGradient><clipPath id="clip-path-2" transform="translate(-28.72 -40.07)"><polygon class="cls-1" points="100.16 93.76 69 138.93 75.11 155.02 135.91 131.93 118.74 86.7 100.16 93.76"/></clipPath><radialGradient id="radial-gradient-2" cx="87.38" cy="115.64" fy="107.77318977855603" r="42.06" gradientTransform="matrix(-0.36, -0.93, -0.93, 0.36, 223.37, 154.11)" xlink:href="#radial-gradient"/><radialGradient id="radial-gradient-3" cx="71.24" cy="55.9" r="14.34" gradientUnits="userSpaceOnUse"><stop offset="0.19" stop-color="#b56b6b"/><stop offset="1" stop-color="#b06868"/></radialGradient><radialGradient id="radial-gradient-4" cx="104.37" cy="59.55" r="15.7" xlink:href="#radial-gradient-3"/><radialGradient id="radial-gradient-5" cx="149.71" cy="102.38" r="14.51" xlink:href="#radial-gradient-3"/><radialGradient id="radial-gradient-6" cx="132.12" cy="75.2" r="15.75" xlink:href="#radial-gradient-3"/></defs><g id="_Mirror_Repeat_" data-name="&lt;Mirror Repeat&gt;"><g class="cls-2"><path class="cls-3" d="M71.88,138.69S56,120,52.38,96.36C50.18,82,64.33,73.42,76.5,74.32c11.15.82,16.69,5.55,21.15,14.11,3.2,6.15,2.36,10.64.35,13.1C95.67,104.4,71.88,138.69,71.88,138.69Z" transform="translate(-28.72 -40.07)"/></g></g><g id="_Mirror_Repeat_2" data-name="&lt;Mirror Repeat&gt;"><g class="cls-4"><path class="cls-5" d="M68.2,136.14s23.15,8.18,46.49,3.2c14.17-3,17.2-19.31,12-30.37C122,98.84,115.61,95.34,106,94.21c-6.88-.81-10.78,1.57-12.37,4.33C91.81,101.74,68.2,136.14,68.2,136.14Z" transform="translate(-28.72 -40.07)"/></g></g><path class="cls-6" d="M69.12,71.36A10.7,10.7,0,0,1,66.47,71a10.46,10.46,0,0,1-6.56-5.28,16.7,16.7,0,0,1-.89-13c2.23-7.11,8.26-12.27,14.34-12.27a10.7,10.7,0,0,1,2.65.34,10.5,10.5,0,0,1,6.57,5.28,16.75,16.75,0,0,1,.89,13C81.23,66.2,75.2,71.36,69.12,71.36Z" transform="translate(-28.72 -40.07)"/><path class="cls-7" d="M73.37,40.82h0a10.42,10.42,0,0,1,2.55.32,10.11,10.11,0,0,1,6.33,5.1A16.36,16.36,0,0,1,83.11,59c-2.19,7-8.07,12-14,12a10.3,10.3,0,0,1-2.55-.32,10.16,10.16,0,0,1-6.34-5.1,16.36,16.36,0,0,1-.86-12.73c2.19-7,8.07-12,14-12m0-.75c-6.15,0-12.36,5.09-14.7,12.53-2.69,8.55.77,17,7.72,18.78a10.62,10.62,0,0,0,2.74.35c6.15,0,12.37-5.09,14.71-12.53,2.68-8.55-.77-17-7.72-18.78a10.75,10.75,0,0,0-2.75-.35Z" transform="translate(-28.72 -40.07)"/><path class="cls-8" d="M100.38,76a10.92,10.92,0,0,1-4.85-1.08,10.5,10.5,0,0,1-5.43-6.6c-1.36-4.42-.54-9.75,2.25-14.62,3.64-6.35,10.07-10.62,16-10.62a11,11,0,0,1,4.85,1.09,10.52,10.52,0,0,1,5.42,6.59c1.36,4.42.54,9.75-2.25,14.63C112.74,71.75,106.31,76,100.38,76Z" transform="translate(-28.72 -40.07)"/><path class="cls-7" d="M108.36,43.47h0a10.6,10.6,0,0,1,4.68,1,10.22,10.22,0,0,1,5.24,6.37c1.32,4.33.51,9.55-2.23,14.33-3.57,6.24-9.87,10.43-15.67,10.43a10.51,10.51,0,0,1-4.69-1,10.12,10.12,0,0,1-5.23-6.37c-1.33-4.32-.52-9.54,2.22-14.32,3.57-6.24,9.87-10.43,15.68-10.43m0-.75c-5.93,0-12.5,4.11-16.33,10.81-5,8.67-3.48,18.41,3.33,21.74a11.38,11.38,0,0,0,5,1.12c5.92,0,12.49-4.11,16.32-10.81,5-8.68,3.48-18.41-3.33-21.74a11.36,11.36,0,0,0-5-1.12Z" transform="translate(-28.72 -40.07)"/><path class="cls-9" d="M145.43,115.74c-4,0-7.35-1.4-9.36-3.94a9.3,9.3,0,0,1-1.8-7.36c.62-4.21,3.58-8.52,7.91-11.52A21.13,21.13,0,0,1,154,89c4,0,7.34,1.4,9.36,3.94a9.34,9.34,0,0,1,1.8,7.36c-.62,4.21-3.59,8.52-7.92,11.51a21,21,0,0,1-11.81,3.9Z" transform="translate(-28.72 -40.07)"/><path class="cls-7" d="M154,89.4c3.9,0,7.12,1.35,9.06,3.8a9,9,0,0,1,1.73,7.08c-.61,4.11-3.51,8.32-7.76,11.26a20.72,20.72,0,0,1-11.6,3.82c-3.91,0-7.13-1.34-9.07-3.79a9,9,0,0,1-1.72-7.08c.61-4.11,3.51-8.32,7.76-11.26A20.68,20.68,0,0,1,154,89.4m0-.75a21.55,21.55,0,0,0-12,4c-7.7,5.33-10.47,14-6.2,19.42,2.16,2.72,5.7,4.08,9.66,4.08a21.47,21.47,0,0,0,12-4c7.69-5.32,10.47-14,6.19-19.41C161.5,90,158,88.65,154,88.65Z" transform="translate(-28.72 -40.07)"/><path class="cls-10" d="M127.31,91a11.32,11.32,0,0,1-6.59-2,10.18,10.18,0,0,1-4.17-7.18c-.61-4.55,1.17-9.89,4.77-14.28,4.15-5.07,10.14-8.22,15.61-8.22a11.39,11.39,0,0,1,6.59,1.95,10.2,10.2,0,0,1,4.17,7.19c.61,4.55-1.17,9.88-4.77,14.27C138.77,87.86,132.78,91,127.31,91Z" transform="translate(-28.72 -40.07)"/><path class="cls-7" d="M136.93,59.75a11,11,0,0,1,6.37,1.89,9.81,9.81,0,0,1,4,6.93c.61,4.44-1.14,9.67-4.68,14-4.09,5-10,8.09-15.32,8.09a10.92,10.92,0,0,1-6.37-1.89,9.75,9.75,0,0,1-4-6.92c-.61-4.45,1.14-9.68,4.68-14,4.08-5,10-8.09,15.32-8.09m0-.75c-5.39,0-11.52,3-15.9,8.37-6.42,7.82-6.65,17.67-.53,22a11.69,11.69,0,0,0,6.81,2c5.39,0,11.52-3,15.9-8.36,6.42-7.83,6.65-17.68.52-22a11.65,11.65,0,0,0-6.8-2Z" transform="translate(-28.72 -40.07)"/><text class="cls-11" transform="translate(0.25 76.72)">A<tspan class="cls-12" x="30" y="0">d</tspan><tspan class="cls-13" x="56.04" y="0">o</tspan><tspan class="cls-14" x="80.88" y="0">p</tspan><tspan class="cls-15" x="107.53" y="0">t</tspan><tspan class="cls-16" x="126.42" y="0">!</tspan></text></svg>